<svg xmlns="http://www.w3.org/2000/svg" viewBox="0 0 512 512">
  <defs>
    <linearGradient id="g" x1="0%" y1="0%" x2="100%" y2="100%">
      <stop offset="0%" stop-color="#f97316"/>
      <stop offset="100%" stop-color="#ef4444"/>
    </linearGradient>
  </defs>
  <rect width="512" height="512" rx="120" fill="url(#g)"/>
  <path fill="#ffffff" transform="scale(0.7) translate(110, 80)" d="M501.6 395.3l-105-132.8c-12-15.2-34.9-15.4-47-.2-12.8 16-33.8 13.9-44-3.7l-35.3-61C260.6 181 245.8 181 236 198l-35.3 61c-10.2 17.6-31.2 19.7-44 3.7-12-15.2-34.9-15-47 .2l-105 132.8C-5.5 408.8-1 426 12 436.5c4.7 3.8 10.7 5.5 16.6 5.5h155.4v32c0 21.2 17.2 38.4 38.4 38.4h67.2c21.2 0 38.4-17.2 38.4-38.4v-32h155.4c6 0 11.9-1.7 16.6-5.5 13-10.5 17.5-27.7 7.4-41.2z"/>
</svg>
